<?xml version="1.0" encoding="UTF-8" standalone="no"?>
<svg
   xmlns:dc="http://purl.org/dc/elements/1.1/"
   xmlns:cc="http://creativecommons.org/ns#"
   xmlns:rdf="http://www.w3.org/1999/02/22-rdf-syntax-ns#"
   xmlns:svg="http://www.w3.org/2000/svg"
   xmlns="http://www.w3.org/2000/svg"
   xmlns:xlink="http://www.w3.org/1999/xlink"
   xmlns:sodipodi="http://sodipodi.sourceforge.net/DTD/sodipodi-0.dtd"
   xmlns:inkscape="http://www.inkscape.org/namespaces/inkscape"
   width="210mm"
   height="297mm"
   viewBox="0 0 210 297"
   version="1.1"
   id="svg8"
   inkscape:export-filename="/Users/gordo/Documents/m9/practica/globo.png"
   inkscape:export-xdpi="96"
   inkscape:export-ydpi="96"
   inkscape:version="1.0.2 (e86c8708, 2021-01-15)"
   sodipodi:docname="globo.svg">
  <defs
     id="defs2">
    <linearGradient
       inkscape:collect="always"
       id="linearGradient1162">
      <stop
         style="stop-color:#550000;stop-opacity:1;"
         offset="0"
         id="stop1158" />
      <stop
         style="stop-color:#550000;stop-opacity:1;"
         offset="0.31179675"
         id="stop1170" />
      <stop
         style="stop-color:#800000;stop-opacity:1"
         offset="0.53678644"
         id="stop1166" />
      <stop
         style="stop-color:#550000;stop-opacity:1;"
         offset="0.75515878"
         id="stop1168" />
      <stop
         style="stop-color:#550000;stop-opacity:1"
         offset="1"
         id="stop1160" />
    </linearGradient>
    <linearGradient
       inkscape:collect="always"
       id="linearGradient1139">
      <stop
         style="stop-color:#550000;stop-opacity:1;"
         offset="0"
         id="stop1135" />
      <stop
         style="stop-color:#550000;stop-opacity:0;"
         offset="1"
         id="stop1137" />
    </linearGradient>
    <linearGradient
       inkscape:collect="always"
       id="linearGradient1036">
      <stop
         style="stop-color:#ffd5d5;stop-opacity:1;"
         offset="0"
         id="stop1032" />
      <stop
         style="stop-color:#ffd5d5;stop-opacity:0;"
         offset="1"
         id="stop1034" />
    </linearGradient>
    <linearGradient
       inkscape:collect="always"
       id="linearGradient1028">
      <stop
         style="stop-color:#ffd5d5;stop-opacity:1;"
         offset="0"
         id="stop1024" />
      <stop
         style="stop-color:#ffd5d5;stop-opacity:0;"
         offset="1"
         id="stop1026" />
    </linearGradient>
    <inkscape:path-effect
       effect="bend_path"
       id="path-effect1001"
       is_visible="true"
       lpeversion="1"
       bendpath="m 137.37442,69.155965 c 0,0 17.50088,26.168764 15.59326,52.775935 -1.40102,19.54117 -17.07915,41.09607 -17.07915,41.09607"
       prop_scale="0.9201878"
       scale_y_rel="true"
       vertical="true"
       hide_knot="false"
       bendpath-nodetypes="csc" />
    <inkscape:path-effect
       effect="bend_path"
       id="path-effect977"
       is_visible="true"
       lpeversion="1"
       bendpath="m 194.62347,115.7663 c 0,0 2.09865,26.16877 -16.60397,52.77595 -13.73579,19.54117 -43.83378,41.09607 -43.83378,41.09607"
       prop_scale="0.9201878"
       scale_y_rel="true"
       vertical="true"
       hide_knot="false"
       bendpath-nodetypes="csc" />
    <inkscape:path-effect
       effect="bend_path"
       id="path-effect953"
       is_visible="true"
       lpeversion="1"
       bendpath="m 81.800068,41.559707 c 0,0 -21.834202,32.560423 -19.454242,65.666343 1.74792,24.31405 21.308052,51.13368 21.308052,51.13368"
       prop_scale="0.6919337"
       scale_y_rel="true"
       vertical="true"
       hide_knot="false"
       bendpath-nodetypes="csc" />
    <inkscape:path-effect
       effect="bend_path"
       id="path-effect929"
       is_visible="true"
       lpeversion="1"
       bendpath="m 101.08192,53.478727 c 0,0 -21.834202,26.168764 -19.454242,52.775943 1.74792,19.54117 21.308052,41.09607 21.308052,41.09607"
       prop_scale="0.9201878"
       scale_y_rel="true"
       vertical="true"
       hide_knot="false"
       bendpath-nodetypes="csc" />
    <inkscape:path-effect
       effect="bend_path"
       id="path-effect906"
       is_visible="true"
       lpeversion="1"
       bendpath="m 83.477319,39.682352 c 0,0 -25.272207,34.302388 -22.517498,69.179468 2.023146,25.61484 24.663212,53.8693 24.663212,53.8693"
       prop_scale="0.63612773"
       scale_y_rel="true"
       vertical="true"
       hide_knot="false"
       bendpath-nodetypes="csc" />
    <linearGradient
       inkscape:collect="always"
       id="linearGradient894">
      <stop
         style="stop-color:#ffd5d5;stop-opacity:1;"
         offset="0"
         id="stop890" />
      <stop
         style="stop-color:#ffd5d5;stop-opacity:0;"
         offset="1"
         id="stop892" />
    </linearGradient>
    <linearGradient
       inkscape:collect="always"
       id="linearGradient851">
      <stop
         style="stop-color:#ff0000;stop-opacity:1"
         offset="0"
         id="stop847" />
      <stop
         style="stop-color:#d90000;stop-opacity:1;"
         offset="0.58847767"
         id="stop857" />
      <stop
         style="stop-color:#800000;stop-opacity:1"
         offset="1"
         id="stop849" />
    </linearGradient>
    <radialGradient
       inkscape:collect="always"
       xlink:href="#linearGradient851"
       id="radialGradient853"
       cx="108.79847"
       cy="99.903023"
       fx="108.79847"
       fy="99.903023"
       r="55.425646"
       gradientTransform="matrix(1.1234671,0.01008358,-0.01307575,1.4567976,-12.126738,-46.732552)"
       gradientUnits="userSpaceOnUse" />
    <linearGradient
       inkscape:collect="always"
       xlink:href="#linearGradient894"
       id="linearGradient896"
       x1="111.72041"
       y1="-26.488173"
       x2="111.30746"
       y2="141.18715"
       gradientUnits="userSpaceOnUse"
       gradientTransform="matrix(0.86978914,0,0,0.91699972,15.196578,9.5627824)" />
    <linearGradient
       inkscape:collect="always"
       xlink:href="#linearGradient1028"
       id="linearGradient1030"
       x1="77.396362"
       y1="43.519676"
       x2="76.228317"
       y2="151.64644"
       gradientUnits="userSpaceOnUse" />
    <linearGradient
       inkscape:collect="always"
       xlink:href="#linearGradient1036"
       id="linearGradient1038"
       x1="96.593933"
       y1="60.705521"
       x2="96.76252"
       y2="131.4836"
       gradientUnits="userSpaceOnUse" />
    <filter
       inkscape:collect="always"
       style="color-interpolation-filters:sRGB"
       id="filter1100"
       x="-0.15514934"
       width="1.3102987"
       y="-0.13966403"
       height="1.2793281">
      <feGaussianBlur
         inkscape:collect="always"
         stdDeviation="0.97270316"
         id="feGaussianBlur1102" />
    </filter>
    <linearGradient
       inkscape:collect="always"
       xlink:href="#linearGradient1139"
       id="linearGradient1141"
       x1="110.08751"
       y1="174.91277"
       x2="110.55862"
       y2="100.51286"
       gradientUnits="userSpaceOnUse" />
    <linearGradient
       inkscape:collect="always"
       xlink:href="#linearGradient1162"
       id="linearGradient1164"
       x1="105.16345"
       y1="178.42206"
       x2="115.00448"
       y2="178.42206"
       gradientUnits="userSpaceOnUse"
       gradientTransform="matrix(1.5887021,0,0,1.5743824,-64.959112,-100.80543)" />
  </defs>
  <sodipodi:namedview
     id="base"
     pagecolor="#ffffff"
     bordercolor="#666666"
     borderopacity="1.0"
     inkscape:pageopacity="0.0"
     inkscape:pageshadow="2"
     inkscape:zoom="0.61580177"
     inkscape:cx="387.738"
     inkscape:cy="643.18438"
     inkscape:document-units="mm"
     inkscape:current-layer="layer1"
     inkscape:document-rotation="0"
     showgrid="false"
     inkscape:window-width="1483"
     inkscape:window-height="1174"
     inkscape:window-x="1077"
     inkscape:window-y="68"
     inkscape:window-maximized="0" />
  <metadata
     id="metadata5">
    <rdf:RDF>
      <cc:Work
         rdf:about="">
        <dc:format>image/svg+xml</dc:format>
        <dc:type
           rdf:resource="http://purl.org/dc/dcmitype/StillImage" />
        <dc:title></dc:title>
      </cc:Work>
    </rdf:RDF>
  </metadata>
  <g
     inkscape:label="Capa 1"
     inkscape:groupmode="layer"
     id="layer1">
    <path
       style="fill:none;stroke:#290000;stroke-width:1.09129;stroke-linecap:butt;stroke-linejoin:miter;stroke-miterlimit:4;stroke-dasharray:none;stroke-opacity:1"
       d="m 109.03452,177.50366 c 7.29416,10.42924 -8.33722,62.9689 1.83775,84.31563 v 0"
       id="path1174"
       sodipodi:nodetypes="ccc" />
    <path
       id="rect1147"
       style="opacity:1;fill:url(#linearGradient1164);fill-opacity:1;stroke-width:0.295448"
       d="m 107.4941,175.50232 5.49555,0.1025 4.75909,6.35661 c -1.61666,1.32145 -2.5493,3.00053 -6.86442,2.73446 -1.12599,-1.95766 -3.00923,-1.53264 -4.13522,-1.09874 0.048,2.48495 -1.92561,1.49109 -4.63483,0.8249 -2.270207,-1.74664 1.35351,-2.31449 2.71424,-3.33494 z"
       sodipodi:nodetypes="cccccccc" />
    <path
       style="color:#000000;font-style:normal;font-variant:normal;font-weight:normal;font-stretch:normal;font-size:medium;line-height:normal;font-family:sans-serif;font-variant-ligatures:normal;font-variant-position:normal;font-variant-caps:normal;font-variant-numeric:normal;font-variant-alternates:normal;font-variant-east-asian:normal;font-feature-settings:normal;font-variation-settings:normal;text-indent:0;text-align:start;text-decoration:none;text-decoration-line:none;text-decoration-style:solid;text-decoration-color:#000000;letter-spacing:normal;word-spacing:normal;text-transform:none;writing-mode:lr-tb;direction:ltr;text-orientation:mixed;dominant-baseline:auto;baseline-shift:baseline;text-anchor:start;white-space:normal;shape-padding:0;shape-margin:0;inline-size:0;clip-rule:nonzero;display:inline;overflow:visible;visibility:visible;isolation:auto;mix-blend-mode:normal;color-interpolation:sRGB;color-interpolation-filters:linearRGB;solid-color:#000000;solid-opacity:1;vector-effect:none;fill:url(#radialGradient853);fill-opacity:1;fill-rule:evenodd;stroke-width:0.281285;stroke-linecap:butt;stroke-linejoin:miter;stroke-miterlimit:4;stroke-dasharray:none;stroke-dashoffset:0;stroke-opacity:1;color-rendering:auto;image-rendering:auto;shape-rendering:auto;text-rendering:auto;enable-background:accumulate;stop-color:#000000;stop-opacity:1;stroke:none;opacity:1"
       d="m 164.22412,99.903023 c 0,42.074017 -24.8149,76.181747 -55.42564,76.181747 -30.610743,0 -55.425651,-34.10773 -55.425651,-76.181747 0,-42.074018 24.814908,-76.181748 55.425651,-76.181748 30.61074,0 55.42564,34.10773 55.42564,76.181748 z"
       id="path10" />
    <path
       style="color:#000000;font-style:normal;font-variant:normal;font-weight:normal;font-stretch:normal;font-size:medium;line-height:normal;font-family:sans-serif;font-variant-ligatures:normal;font-variant-position:normal;font-variant-caps:normal;font-variant-numeric:normal;font-variant-alternates:normal;font-variant-east-asian:normal;font-feature-settings:normal;font-variation-settings:normal;text-indent:0;text-align:start;text-decoration:none;text-decoration-line:none;text-decoration-style:solid;text-decoration-color:#000000;letter-spacing:normal;word-spacing:normal;text-transform:none;writing-mode:lr-tb;direction:ltr;text-orientation:mixed;dominant-baseline:auto;baseline-shift:baseline;text-anchor:start;white-space:normal;shape-padding:0;shape-margin:0;inline-size:0;clip-rule:nonzero;display:inline;overflow:visible;visibility:visible;isolation:auto;mix-blend-mode:normal;color-interpolation:sRGB;color-interpolation-filters:linearRGB;solid-color:#000000;solid-opacity:1;vector-effect:none;fill:url(#linearGradient896);fill-opacity:1;fill-rule:evenodd;stroke:none;stroke-width:0.195846;stroke-linecap:butt;stroke-linejoin:miter;stroke-miterlimit:4;stroke-dasharray:none;stroke-dashoffset:0;stroke-opacity:1;color-rendering:auto;image-rendering:auto;shape-rendering:auto;text-rendering:auto;enable-background:accumulate;stop-color:#000000"
       d="m 147.72069,101.38298 c 0,30.14931 -16.78735,54.59015 -37.4956,54.59015 -20.708245,0 -37.495596,-24.44084 -37.495596,-54.59015 0,-30.149297 16.787351,-54.590133 37.495596,-54.590133 20.70825,0 37.4956,24.440836 37.4956,54.590133 z"
       id="path10-9" />
    <path
       style="fill:url(#linearGradient1038);stroke-width:0.828901;fill-opacity:1"
       d="m 90.192151,69.984852 c 2.31476,1.376153 4.104275,3.701317 3.738144,5.832112 -1.90956,4.011006 -3.704171,8.144251 -5.154617,12.388648 -1.887691,5.512455 -3.401188,11.528834 -3.516667,17.724238 0,0 0,0 0,0 -0.134346,4.45279 0.751904,9.22116 2.264735,14.18282 1.382549,4.52888 3.308363,9.11291 5.714,13.78708 2.744583,4.53298 5.650017,9.2542 8.771464,14.18734 -3.614721,-4.21018 -7.246118,-8.44196 -10.894188,-12.69535 -3.068871,-4.12718 -5.911325,-8.50746 -8.318818,-13.21819 -2.42913,-4.73067 -4.40959,-9.90642 -5.261355,-15.55278 0,-10e-6 0,-10e-6 0,-10e-6 -1.023496,-7.103323 -0.524783,-14.34431 0.984052,-21.248625 1.141235,-5.179787 2.787409,-10.2353 4.797158,-15.121112 1.68342,-2.006958 4.566965,-1.638972 6.876092,-0.266171 z"
       id="path1042" />
    <path
       style="fill:#ffffff;stroke-width:0.828901;fill-opacity:1;filter:url(#filter1100)"
       d="m 101.09511,53.45834 c 3.11162,2.013545 3.45333,7.009442 0.8049,11.098543 -2.648513,4.089208 -7.417106,5.931408 -10.609093,4.054261 -3.192012,-1.877166 -3.570916,-6.81931 -0.804651,-11.098931 2.766146,-4.279426 7.497239,-6.067398 10.608844,-4.053873 z"
       id="rect898-7" />
    <path
       id="rect898-7-4"
       style="fill:url(#linearGradient1030);stroke-width:0.924604;opacity:0.27009646;fill-opacity:1"
       d="m 81.813052,41.540506 c 0.110655,0.07563 0.274935,0.206896 0.372986,0.311754 0,0 0,10e-7 0,10e-7 0.07061,0.07243 0.138259,0.150576 0.201442,0.2334 0.140374,0.184286 0.263279,0.394855 0.364864,0.627796 0.209927,0.481358 0.33795,1.063579 0.378031,1.725729 0.08389,1.384568 -0.201509,3.101513 -0.803217,4.939258 -0.414362,1.266243 -0.969609,2.567892 -1.62744,3.824414 -2.650232,5.062204 -6.521872,8.606955 -8.993874,7.541197 -2.468751,-1.064361 -2.572875,-6.493951 0.346171,-12.06887 0.707019,-1.350295 1.543876,-2.607054 2.456758,-3.697183 1.330488,-1.589186 2.759465,-2.751893 4.083314,-3.353212 0.631426,-0.286766 1.223437,-0.442303 1.760335,-0.461865 0.259797,-0.0095 0.50336,0.01162 0.731827,0.06464 0.102648,0.0239 0.201089,0.05349 0.296508,0.08961 0,0 10e-7,0 10e-7,0 0.144369,0.053 0.302911,0.134905 0.432294,0.223331 z M 70.758425,62.620325 c 1.801157,0.784094 3.049884,2.811073 2.532883,5.365087 -1.954978,5.145275 -3.72742,10.4446 -5.138715,15.861365 -1.891902,7.289214 -3.260008,15.145018 -3.192642,23.191343 0,0 0,0 0,0 0.0273,5.77523 1.062186,11.77021 2.768527,17.96398 1.523955,5.51794 3.579535,11.09657 6.125687,16.78563 1.818814,4.06359 3.884915,8.17655 6.227811,12.29695 0.664902,1.1694 1.354723,2.34381 2.074668,3.51327 0.192251,0.31228 0.387424,0.62536 0.586426,0.93807 0.05166,0.0812 0.10388,0.16275 0.156801,0.24459 0.01359,0.021 0.02737,0.0422 0.04137,0.0637 -5e-6,8.8e-4 2.6e-5,0.002 9.3e-5,0.003 -1.17e-4,-8e-4 -1.99e-4,-0.002 -2.45e-4,-0.002 -0.01574,-0.0202 -0.03128,-0.0401 -0.04664,-0.0599 -0.05974,-0.0769 -0.118842,-0.1536 -0.177447,-0.22999 -0.22514,-0.29346 -0.447172,-0.5881 -0.667078,-0.88302 -10e-7,0 -2e-6,0 -3e-6,0 -0.815019,-1.09303 -1.608764,-2.20076 -2.387029,-3.3174 -10e-7,0 -2e-6,0 -2e-6,0 -2.640738,-3.78864 -5.117978,-7.70063 -7.420293,-11.72172 -3.010042,-5.2548 -5.72951,-10.71628 -7.968612,-16.41993 -2.339909,-5.94181 -4.168941,-12.21079 -4.888687,-18.77357 0,0 0,0 0,0 -0.903829,-8.436186 -0.338628,-16.980711 1.200254,-25.272291 1.083914,-5.869501 2.634214,-11.642401 4.545169,-17.28186 1.477376,-2.566064 3.841199,-3.042118 5.627702,-2.264404 z" />
    <path
       id="rect898-7-0"
       style="fill:#550000;stroke-width:0.712069;opacity:0.36655949"
       d="m 154.80029,91.834567 c -1.94545,0.92975 -3.70573,2.87849 -3.87524,5.02157 0.55919,4.251523 1.0108,8.601753 1.19213,12.999093 0.23835,5.71178 0.10501,11.84833 -1.0708,17.91048 v 0 c -0.80812,4.36618 -2.41483,8.85833 -4.51176,13.42737 -1.91522,4.17022 -4.2326,8.29747 -6.91361,12.42717 -2.89625,3.93164 -5.94649,8.01821 -9.19525,12.27295 3.45684,-3.46189 6.93007,-6.94188 10.41969,-10.43996 3.04716,-3.47817 5.9828,-7.24348 8.67258,-11.4085 2.70939,-4.18061 5.18633,-8.87515 6.94665,-14.22964 v -1e-5 c 2.17997,-6.74468 3.29243,-13.89471 3.60956,-20.89632 0.23124,-5.25444 0.0739,-10.477603 -0.37965,-15.600053 -0.80366,-2.25692 -2.95357,-2.41163 -4.8943,-1.48415 z"
       sodipodi:nodetypes="sccsscccccssccs" />
    <path
       style="color:#000000;font-style:normal;font-variant:normal;font-weight:normal;font-stretch:normal;font-size:medium;line-height:normal;font-family:sans-serif;font-variant-ligatures:normal;font-variant-position:normal;font-variant-caps:normal;font-variant-numeric:normal;font-variant-alternates:normal;font-variant-east-asian:normal;font-feature-settings:normal;font-variation-settings:normal;text-indent:0;text-align:start;text-decoration:none;text-decoration-line:none;text-decoration-style:solid;text-decoration-color:#000000;letter-spacing:normal;word-spacing:normal;text-transform:none;writing-mode:lr-tb;direction:ltr;text-orientation:mixed;dominant-baseline:auto;baseline-shift:baseline;text-anchor:start;white-space:normal;shape-padding:0;shape-margin:0;inline-size:0;clip-rule:nonzero;display:inline;overflow:visible;visibility:visible;isolation:auto;mix-blend-mode:normal;color-interpolation:sRGB;color-interpolation-filters:linearRGB;solid-color:#000000;solid-opacity:1;vector-effect:none;fill:url(#linearGradient1141);fill-opacity:1;fill-rule:evenodd;stroke:none;stroke-width:0.281285;stroke-linecap:butt;stroke-linejoin:miter;stroke-miterlimit:4;stroke-dasharray:none;stroke-dashoffset:0;stroke-opacity:1;color-rendering:auto;image-rendering:auto;shape-rendering:auto;text-rendering:auto;enable-background:accumulate;stop-color:#000000"
       d="m 164.22412,99.903023 c 0,42.074017 -24.8149,76.181747 -55.42564,76.181747 -30.61074,0 -55.425648,-34.10773 -55.425648,-76.181747 0,-42.074018 24.814908,-76.181748 55.425648,-76.181748 30.61074,0 55.42564,34.10773 55.42564,76.181748 z"
       id="path10-6" />
  </g>
</svg>
